Coordinates
version=1
nRows=12
nColumns=42
inDegrees=yes

Units are S.I. units (second, meters, Newtons, ...)
If the header above contains a line with 'inDegrees', this indicates whether rotational values are in degrees (yes) or radians (no).

endheader
time	pelvis_tilt	pelvis_list	pelvis_rotation	pelvis_tx	pelvis_ty	pelvis_tz	hip_flexion_r	hip_adduction_r	hip_rotation_r	knee_angle_r	knee_adduction_r	knee_angle_r_beta	ankle_angle_r	subtalar_angle_r	mtp_angle_r	hip_flexion_l	hip_adduction_l	hip_rotation_l	knee_angle_l	knee_adduction_l	knee_angle_l_beta	ankle_angle_l	subtalar_angle_l	mtp_angle_l	lumbar_extension	lumbar_bending	lumbar_rotation	arm_flex_r	arm_add_r	arm_rot_r	elbow_flex_r	pro_sup_r	wrist_flex_r	wrist_dev_r	arm_flex_l	arm_add_l	arm_rot_l	elbow_flex_l	pro_sup_l	wrist_flex_l	wrist_dev_l
      0.81000000	      9.11873826	     -1.76927703	      0.00654995	     -0.21585779	      0.86469210	     -0.29642273	    -28.31669077	      5.42103559	    -10.70650585	     11.84385980	     -1.76758325	      0.20671435	     22.27693673	     20.52459207	     -7.60762689	     16.04907600	     -3.67368016	    -25.19940878	     11.96220751	      2.16124877	      0.20877991	     11.11483361	     19.33275691	     -7.60762689	    -21.51483039	     -1.62361397	      2.92702593	      0.48974465	     -2.27665092	    -15.19072974	     56.62137880	     90.00000001	      0.00000000	      0.00000000	     -3.74841336	     -4.46787558	    -24.53326590	     35.02752114	     90.00000001	      0.00000000	      0.00000000
      0.82000000	      8.81640806	     -1.70531172	     -0.07428218	     -0.20359652	      0.86283814	     -0.29647187	    -28.60150894	      5.23863146	    -10.95836695	     12.39534308	     -1.86496119	      0.21633955	     22.07558881	     20.53641431	     -7.60592021	     16.48166062	     -3.30714185	    -24.93770986	     12.38172078	      1.88222606	      0.21610179	     11.10988401	     19.20276295	     -7.60592021	    -21.04499126	     -1.73711440	      2.98386144	      0.43190064	     -2.23111500	    -15.15482709	     56.38176431	     90.00000001	      0.00000000	      0.00000000	     -3.99490304	     -4.58752560	    -24.59861475	     34.70413594	     90.00000001	      0.00000000	      0.00000000
      0.83000000	      8.49599609	     -1.43444764	     -0.16940827	     -0.19101757	      0.86097173	     -0.29678892	    -28.80847801	      4.75573325	    -11.50122998	     13.13954422	     -1.87541677	      0.22932831	     21.94885874	     20.69895288	     -7.60365685	     16.92085356	     -2.67972063	    -24.50695505	     13.13352368	      1.44601257	      0.22922323	     11.06998886	     18.81997698	     -7.60365685	    -20.52317270	     -2.05150101	      3.01264083	      0.29927890	     -2.19464002	    -15.20220829	     56.12087304	     90.00000001	      0.00000000	      0.00000000	     -4.22675492	     -4.66796042	    -24.84827641	     34.40045399	     90.00000001	      0.00000000	      0.00000000
      0.84000000	      8.20473654	     -1.11585772	     -0.29011168	     -0.17841830	      0.85923733	     -0.29715343	    -29.00078636	      4.19462149	    -11.99887521	     13.95160153	     -1.89365288	      0.24350138	     21.70615154	     20.87899156	     -7.60192807	     17.34645027	     -1.94616181	    -23.92191560	     14.14815178	      0.78316195	      0.24693183	     10.90411819	     18.24579916	     -7.60192807	    -20.05927814	     -2.42441456	      3.03655434	      0.17238388	     -2.15012614	    -15.26205575	     55.86694974	     90.00000001	      0.00000000	      0.00000000	     -4.45562264	     -4.75639470	    -25.08189296	     34.14381777	     90.00000001	      0.00000000	      0.00000000
      0.85000000	      7.87762684	     -0.55824036	     -0.37605831	     -0.16544067	      0.85752206	     -0.29769490	    -29.07663294	      3.34547121	    -12.97343504	     14.99295163	     -1.90103524	      0.26167637	     21.50877216	     21.31543556	     -7.59960692	     17.80116987	     -0.96707972	    -23.35587056	     15.40940301	      0.07818994	      0.26894482	     10.62683107	     17.26041286	     -7.59960692	    -19.51617413	     -3.05164280	      3.02871957	     -0.06178862	     -2.09730236	    -15.40034978	     55.51974137	     90.00000001	      0.00000000	      0.00000000	     -4.67335392	     -4.81389678	    -25.45827750	     33.92607769	     90.00000001	      0.00000000	      0.00000000
      0.86000000	      7.79451753	      0.60260753	     -0.61404593	     -0.15237074	      0.85627511	     -0.29871655	    -29.02848796	      1.44551663	    -15.77556412	     16.88904714	     -1.87608847	      0.29476948	     21.68856562	     24.50968036	     -7.59088368	     17.68550630	      0.86901345	    -22.04923119	     16.10671360	     -0.67927966	      0.28111518	      9.80265081	     14.95304077	     -7.59088368	    -19.26323085	     -4.30562717	      2.90738727	     -0.26247655	     -1.98065551	    -15.56912051	     55.20139941	     90.00000001	      0.00000000	      0.00000000	     -4.81443516	     -4.82466807	    -26.37358903	     33.77448687	     90.00000001	      0.00000000	      0.00000000
      0.87000000	      7.50892004	      1.14276474	     -0.67547473	     -0.13941253	      0.85502396	     -0.29918023	    -29.11185130	      0.67234895	    -16.26866138	     17.90911824	     -1.96566478	      0.31257308	     20.97262169	     24.25947742	     -7.58940565	     18.26488671	      1.76554690	    -21.46425669	     17.98408064	     -1.57136052	      0.31388142	      9.52388056	     13.93598139	     -7.58940565	    -18.82029869	     -4.92452139	      2.89989797	     -0.50562006	     -1.90455170	    -15.69375517	     54.77339144	     90.00000001	      0.00000000	      0.00000000	     -5.00127621	     -4.96559155	    -26.40367155	     33.62795692	     90.00000001	      0.00000000	      0.00000000
      0.88000000	      7.29847956	      1.78786845	     -0.75638808	     -0.12646024	      0.85411928	     -0.29972603	    -29.14741919	     -0.28776517	    -16.72834474	     19.17893723	     -1.97235088	      0.33473560	     20.03727364	     24.05047845	     -7.58827603	     18.77406346	      2.71913083	    -20.79414075	     20.02049538	     -2.37095537	      0.34942356	      9.35413649	     12.69862365	     -7.58827603	    -18.49014074	     -5.66070010	      2.84482446	     -0.71465168	     -1.81706959	    -15.88127921	     54.31263779	     90.00000001	      0.00000000	      0.00000000	     -5.16333565	     -5.08979683	    -26.51654093	     33.52272591	     90.00000001	      0.00000000	      0.00000000
      0.89000000	      7.25237472	      3.01630179	     -0.87641511	     -0.11350875	      0.85373480	     -0.30078524	    -29.06397226	     -2.09369452	    -18.44688907	     21.09978934	     -2.11276087	      0.36826080	     19.45893980	     25.29347324	     -7.58188804	     18.62019436	      4.51434898	    -18.47812428	     21.12653128	     -2.54741266	      0.36872753	      8.48090487	      8.07698163	     -7.58188804	    -18.37738119	     -6.99117110	      2.67190679	     -0.90156207	     -1.62992045	    -16.22722488	     53.80443978	     90.00000001	      0.00000000	      0.00000000	     -5.28209074	     -5.17971003	    -26.90015296	     33.57292825	     90.00000001	      0.00000000	      0.00000000
      0.90000000	      7.20804449	      3.84155595	     -0.94199757	     -0.10059442	      0.85365258	     -0.30143822	    -29.00629787	     -3.28198591	    -19.00321760	     22.78694938	     -2.26742859	      0.39770729	     18.16167103	     25.10988913	     -7.57572780	     18.64055048	      5.64274173	    -16.59596390	     22.79351562	     -2.57081602	      0.39782190	      8.21269702	      4.71854635	     -7.57572780	    -18.28675893	     -7.91515283	      2.55901999	     -1.10336597	     -1.52105213	    -16.39497007	     53.23606590	     90.00000001	      0.00000000	      0.00000000	     -5.38241377	     -5.30992381	    -26.95626442	     33.55781303	     90.00000001	      0.00000000	      0.00000000
      0.91000000	      7.28675594	      4.40208093	     -1.10858271	     -0.08750686	      0.85387863	     -0.30180451	    -28.97693380	     -4.20273249	    -18.93088328	     24.52156398	     -2.43220793	      0.42798203	     16.48705370	     24.46777409	     -7.57478279	     18.60886027	      6.26617417	    -15.68576470	     24.75397616	     -2.60270960	      0.43203839	      8.83870747	      3.51504684	     -7.57478279	    -18.30334941	     -8.58625970	      2.62596308	     -1.34153636	     -1.48353840	    -16.53630714	     52.65218152	     90.00000001	      0.00000000	      0.00000000	     -5.46494390	     -5.39719668	    -27.01360143	     33.58763857	     90.00000001	      0.00000000	      0.00000000
      0.92000000	      7.37393273	      5.36912752	     -1.14531232	     -0.07488209	      0.85459939	     -0.30264714	    -28.71414557	     -5.54917611	    -18.93151263	     26.71977374	     -2.55482821	      0.46634803	     14.92672967	     23.32806074	     -7.56918079	     18.00544078	      7.55698762	    -12.63094090	     25.60920860	     -1.67722363	      0.44696501	      8.17397807	     -2.09777416	     -7.56918079	    -18.43907528	     -9.63560942	      2.41582577	     -1.47917394	     -1.34056416	    -16.83295793	     52.00136024	     90.00000001	      0.00000000	      0.00000000	     -5.49048877	     -5.49645522	    -27.05604475	     33.72736364	     90.00000001	      0.00000000	      0.00000000
